M48
; DRILL file {KiCad (6.0.2)} date Wed Aug 17 12:55:00 2022
; FORMAT={-:-/ absolute / metric / decimal}
; #@! TF.CreationDate,2022-08-17T12:55:00+03:00
; #@! TF.GenerationSoftware,Kicad,Pcbnew,(6.0.2)
; #@! TF.FileFunction,Plated,1,2,PTH
FMAT,2
METRIC
; #@! TA.AperFunction,Plated,PTH,ViaDrill
T1C0.400
; #@! TA.AperFunction,Plated,PTH,ComponentDrill
T2C1.000
; #@! TA.AperFunction,Plated,PTH,ComponentDrill
T3C1.500
; #@! TA.AperFunction,Plated,PTH,ComponentDrill
T4C1.700
%
G90
G05
T1
X99.0Y-144.25
X99.0Y-154.5
X99.014Y-146.32
X99.014Y-148.352
X99.014Y-150.384
X99.014Y-152.416
X100.0Y-145.25
X100.0Y-155.5
X100.014Y-147.32
X100.014Y-149.352
X100.014Y-151.384
X100.014Y-153.416
X101.0Y-144.25
X101.0Y-154.5
X101.014Y-146.32
X101.014Y-148.352
X101.014Y-150.384
X101.014Y-152.416
X102.0Y-145.25
X102.0Y-155.5
X102.014Y-147.32
X102.014Y-149.352
X102.014Y-151.384
X102.014Y-153.416
X103.0Y-144.25
X103.014Y-146.32
X104.0Y-145.25
X104.014Y-147.32
X105.0Y-144.25
X105.014Y-146.32
X106.0Y-145.25
X106.014Y-147.32
X107.0Y-144.25
X107.014Y-146.32
X108.0Y-145.25
X108.014Y-147.32
X109.0Y-144.25
X109.014Y-146.32
X109.46Y-100.22
X109.47Y-98.21
X110.0Y-145.25
X110.014Y-149.352
X110.014Y-151.384
X110.014Y-153.25
X110.56Y-94.25
X111.0Y-144.25
X111.014Y-148.352
X111.014Y-150.384
X111.014Y-152.416
X112.014Y-147.32
X112.014Y-149.352
X112.014Y-151.384
X112.014Y-153.25
X112.97Y-144.09
X113.03Y-148.336
X113.03Y-150.368
X113.03Y-152.4
X113.46Y-86.92
X114.8Y-99.175
X115.57Y-94.28
X117.09Y-102.01
X117.14Y-99.34
X118.3Y-79.92
X118.87Y-111.43
X119.37Y-138.17
X119.41Y-143.61
X120.17Y-111.45
X120.26Y-112.71
X120.46Y-85.7
X120.635Y-102.925
X121.359Y-99.35
X121.53Y-112.79
X123.16Y-97.52
X124.45Y-74.415
X126.885Y-113.503
X127.625Y-112.831
X128.34Y-76.86
X128.36Y-85.11
X128.363Y-112.157
X129.07Y-111.45
X129.35Y-97.52
X129.48Y-76.79
X130.147Y-103.65
X131.88Y-110.0
X132.201Y-101.87
X132.999Y-103.32
X133.1Y-138.18
X133.13Y-143.14
X133.77Y-98.98
X135.76Y-118.22
X137.25Y-144.25
X137.25Y-148.25
X137.25Y-150.25
X137.25Y-152.25
X137.25Y-154.25
X138.25Y-145.25
X138.25Y-147.25
X138.25Y-149.25
X138.25Y-151.25
X138.25Y-153.25
X138.25Y-155.25
X139.25Y-144.25
X139.25Y-148.25
X139.25Y-150.25
X139.25Y-152.25
X139.25Y-154.25
X140.25Y-145.25
X140.25Y-149.25
X140.25Y-151.25
X140.25Y-153.25
X140.25Y-155.25
X141.235Y-146.248
X141.25Y-144.25
X142.25Y-145.25
X142.25Y-147.25
X143.235Y-146.248
X143.25Y-144.25
X144.25Y-145.25
X144.25Y-147.25
X145.235Y-146.248
X145.25Y-144.25
X146.25Y-145.25
X146.25Y-147.25
X147.235Y-146.248
X147.25Y-144.25
X148.25Y-145.25
X148.25Y-147.25
X148.25Y-149.25
X148.25Y-151.25
X148.25Y-153.25
X149.235Y-146.248
X149.25Y-144.25
X149.25Y-148.25
X149.25Y-150.25
X149.25Y-152.25
X150.25Y-145.25
X150.25Y-147.25
X150.25Y-149.25
X150.25Y-151.25
X150.25Y-153.25
X151.235Y-146.248
X151.25Y-144.25
X151.25Y-148.25
X151.25Y-150.25
X151.25Y-152.25
X156.29Y-81.97
T2
X101.31Y-132.315
X101.31Y-134.855
X101.31Y-137.395
X122.685Y-138.27
X122.695Y-143.22
X123.975Y-155.37
X125.225Y-138.27
X125.235Y-143.22
X126.515Y-155.37
X127.765Y-138.27
X127.775Y-143.22
X149.952Y-121.37
X149.952Y-123.91
X149.952Y-126.45
X149.952Y-128.99
X149.952Y-131.53
X152.493Y-121.37
X152.493Y-123.91
X152.493Y-126.45
X152.493Y-128.99
X152.493Y-131.53
T3
X125.3Y-65.25
T4
X122.76Y-62.71
X122.76Y-67.79
X127.84Y-62.71
X127.84Y-67.79
T0
M30
